HIERARCHY
ROOT Hips
{
  OFFSET 11.6583 102.315 -101.75
  CHANNELS 6 Xposition Yposition Zposition Zrotation Xrotation Yrotation
  JOINT RightUpLeg
  {
    OFFSET -8.9458 -8.66707 0.101652
    CHANNELS 3 Zrotation Xrotation Yrotation
    JOINT RightLeg
    {
      OFFSET 0 -44.4227 1.3727
      CHANNELS 3 Zrotation Xrotation Yrotation
      JOINT RightFoot
      {
        OFFSET 0.253549 -42.0924 -1.46059
        CHANNELS 3 Zrotation Xrotation Yrotation
        JOINT RightToes
        {
          OFFSET 0.04 -4.41509 8.4991
          CHANNELS 3 Zrotation Xrotation Yrotation
          End Site
          {
            OFFSET -0.08 -0.137448 9.77979
          }
        }
      }
    }
  }
  JOINT Spine
  {
    OFFSET 0 11.8905 0
    CHANNELS 3 Zrotation Xrotation Yrotation
    JOINT Spine1
    {
      OFFSET 0 25.6574 0.127663
      CHANNELS 3 Zrotation Xrotation Yrotation
      JOINT HEad
      {
        OFFSET 0 8.73416 0.011341
        CHANNELS 3 Zrotation Xrotation Yrotation
        End Site
        {
          OFFSET -0.29 12.7742 2.51395
        }
      }
      JOINT LeftShoulder1
      {
        OFFSET 8.99 -0.362252 -0.22
        CHANNELS 3 Zrotation Xrotation Yrotation
        JOINT LeftArm
        {
          OFFSET 10.2827 -0.00338 0.322123
          CHANNELS 3 Zrotation Xrotation Yrotation
          JOINT LeftForeArm
          {
            OFFSET 32.7669 0.099144 -1.42434
            CHANNELS 3 Zrotation Xrotation Yrotation
            JOINT LeftHand
            {
              OFFSET 27.5643 0.085362 1.02216
              CHANNELS 3 Zrotation Xrotation Yrotation
              End Site
              {
                OFFSET 16.7443 -0.6 1.50291
              }
            }
          }
        }
      }
      JOINT RightShoulder
      {
        OFFSET -8.99 -0.362252 -0.22
        CHANNELS 3 Zrotation Xrotation Yrotation
        JOINT RightArm
        {
          OFFSET -10.2827 -0.00338 0.322123
          CHANNELS 3 Zrotation Xrotation Yrotation
          JOINT RightForeArm
          {
            OFFSET -32.8971 0.099144 -1.42434
            CHANNELS 3 Zrotation Xrotation Yrotation
            JOINT RightHand
            {
              OFFSET -27.4921 0.085362 1.02216
              CHANNELS 3 Zrotation Xrotation Yrotation
              End Site
              {
                OFFSET -16.6312 -0.6 1.50291
              }
            }
          }
        }
      }
    }
  }
  JOINT LeftUpLeg
  {
    OFFSET 8.9458 -8.66707 0.101652
    CHANNELS 3 Zrotation Xrotation Yrotation
    JOINT LeftLeg
    {
      OFFSET 0 -44.4227 1.3727
      CHANNELS 3 Zrotation Xrotation Yrotation
      JOINT LeftFoot
      {
        OFFSET -0.253549 -42.0924 -1.46059
        CHANNELS 3 Zrotation Xrotation Yrotation
        JOINT LeftToes
        {
          OFFSET -0.04 -4.41509 8.4991
          CHANNELS 3 Zrotation Xrotation Yrotation
          End Site
          {
            OFFSET 0.08 -0.047448 9.77979
          }
        }
      }
    }
  }
}
MOTION
Frames:	8
Frame Time:	0.0166667
9.9483 101.792 72.2304 0.765889 1.98646 -0.94343 -0.48726 -11.4903 -9.39873 -15.285 58.7707 6.60534 3.59108 3.4649 -0.344242 12.4068 18.6174 11.6986 2.7403 2.8263 -0.947773 -1.86257 -7.10546 -0.351534 -0.261355 0.281586 3.92197 1.86361e-016 -3.97569e-016 -3.97569e-016 -82.5073 -40.7047 -2.63533 -23.8814 12.5524 -4.44483 0.368473 9.90896 -0.00117927 -7.5097 0.195229 6.87996 96.1174 -37.2042 8.22888 8.92245 13.1573 5.79612 -0.369625 9.91382 0.00119887 -3.41686 -21.2844 -10.4853 -7.3024 20.7327 13.6375 -6.46315 -2.89803 0.0622954 -1.6352e-011 2.0502e-011 -1.31595e-011 
10.0174 101.962 73.5619 0.822131 1.77598 -1.46598 -0.0511799 -13.7668 -7.02746 -15.382 62.0563 4.90805 3.04663 4.67718 -0.33373 12.3534 18.2938 11.6551 2.45587 2.73455 -0.932857 -1.97577 -6.12157 -0.307836 0.0219455 -0.282344 4.20608 3.60297e-016 0 1.19271e-015 -82.9678 -39.9827 -3.80097 -23.8436 12.673 -4.96796 0.368473 9.90896 -0.00117927 -7.2789 0.210503 6.5876 96.261 -36.9778 8.63823 8.92655 13.1617 5.85031 -0.369625 9.91382 0.00119887 -3.23188 -20.1519 -10.2299 -7.65722 20.6945 13.6907 -6.43406 -3.76346 0.0138874 -1.63559e-011 2.05019e-011 -1.31594e-011 
10.0434 102.126 74.8665 0.801886 1.55169 -1.90137 0.58807 -15.9848 -4.59311 -14.2147 64.9416 2.05041 2.15261 4.77524 -0.288565 13.0172 17.4313 12.2552 2.19275 2.65544 -0.909657 -2.07219 -5.16536 -0.264957 0.326604 -0.76558 4.40787 -6.83322e-017 1.98785e-016 -0 -83.4952 -39.0699 -5.25456 -23.7167 12.7148 -5.06391 0.368473 9.90896 -0.00117927 -6.90813 0.231739 6.12856 96.2498 -36.7505 8.99521 9.00704 13.1795 6.05154 -0.369625 9.91382 0.00119887 -2.96302 -19.0129 -10.0268 -8.0309 20.6322 13.7702 -6.39589 -4.62662 -0.0334719 -1.63542e-011 2.05019e-011 -1.31595e-011 
10.0349 102.267 76.1604 0.748739 1.40353 -2.211 1.26633 -18.2467 -2.69653 -13.1433 67.2327 0.475785 1.50739 3.87342 -0.239321 12.7416 16.0063 12.0248 1.88581 2.66752 -0.870652 -2.13668 -4.49095 -0.23281 0.525317 -1.0039 4.54946 -8.69683e-017 -9.93923e-017 -1.19271e-015 -84.0072 -37.8927 -6.89148 -23.551 12.6507 -4.6753 0.368473 9.90896 -0.00117927 -6.4469 0.250468 5.41788 96.0382 -36.5837 9.1478 9.17517 13.2072 6.34468 -0.369625 9.91382 0.00119887 -2.68687 -17.9763 -9.86928 -8.37418 20.6026 13.9157 -6.33604 -5.5289 -0.0821285 -1.63537e-011 2.05018e-011 -1.31596e-011 
10.0089 102.384 77.4471 0.657365 1.28985 -2.40377 1.96608 -20.4598 -1.33279 -12.2905 68.864 -0.609611 0.915112 2.47457 -0.192285 12.0312 14.6031 11.4235 1.56099 2.71222 -0.819303 -2.16844 -3.96895 -0.207521 0.697106 -1.06797 4.59114 6.21202e-018 0 1.19271e-015 -84.5888 -36.6147 -8.72805 -23.2647 12.5115 -3.8584 0.368473 9.90896 -0.00117927 -5.87424 0.267122 4.56979 95.6293 -36.4765 9.17218 9.39952 13.242 6.70416 -0.369625 9.91382 0.00119887 -2.43589 -17.0114 -9.7099 -8.62812 20.6368 13.9271 -6.25121 -6.39125 -0.12729 -1.63529e-011 2.05018e-011 -1.31594e-011 
9.98973 102.467 78.7362 0.527851 1.20549 -2.44841 2.55418 -22.604 -0.847135 -12.2463 69.6708 -1.20606 0.394364 1.18363 -0.165693 10.8201 14.1656 10.3808 1.22089 2.75832 -0.755059 -2.16516 -3.57238 -0.18919 0.881946 -0.956905 4.47903 -2.79541e-017 0 -0 -85.3722 -35.3915 -10.8217 -22.7358 12.3034 -2.56613 0.368473 9.90896 -0.00117927 -5.11836 0.280394 3.6232 94.9354 -36.4642 9.07714 9.66258 13.2795 7.07599 -0.369625 9.91382 0.00119887 -2.30326 -16.138 -9.46957 -8.65452 20.8102 13.4845 -6.12611 -7.11853 -0.163318 -1.63484e-011 2.05019e-011 -1.31595e-011 
9.96472 102.523 80.0256 0.384269 1.13092 -2.42675 3.04415 -24.593 -0.871514 -12.6123 69.7054 -1.52474 -0.111744 -0.191159 -0.153017 9.23349 13.5911 8.94764 0.8706 2.80231 -0.682443 -2.11737 -3.2481 -0.176064 1.07937 -0.720405 4.27855 -2.29845e-016 0 -0 -86.2239 -34.1672 -12.9983 -22.1181 12.0626 -1.05462 0.368473 9.90896 -0.00117927 -4.38244 0.286968 2.71914 94.1771 -36.4972 8.90902 9.93439 13.322 7.49017 -0.369625 9.91382 0.00119887 -2.1991 -15.3096 -9.2413 -8.6347 21.0467 12.9853 -5.9821 -7.80045 -0.194833 -1.63501e-011 2.05019e-011 -1.31595e-011 
9.9295 102.553 81.3161 0.265523 1.03517 -2.42568 3.48756 -26.3162 -1.18419 -13.2733 68.9392 -1.69751 -0.709043 -1.69086 -0.155067 7.23628 11.7218 7.14116 0.500151 2.82939 -0.602784 -2.00674 -2.92889 -0.166579 1.31338 -0.350415 4.03784 5.09386e-016 0 -1.19271e-015 -87.098 -32.955 -15.1393 -21.5339 11.8297 0.481255 0.368473 9.90896 -0.00117927 -3.92079 0.280376 2.06008 93.5921 -36.539 8.69846 10.1766 13.3735 7.99353 -0.369625 9.91382 0.00119887 -2.0686 -14.4857 -9.16854 -8.7569 21.3027 12.8258 -5.83079 -8.509 -0.224709 -1.63504e-011 2.05021e-011 -1.31595e-011 
